<?xml version="1.0" standalone="no"?>
<!DOCTYPE svg PUBLIC "-//W3C//DTD SVG 1.1//EN" "http://www.w3.org/Graphics/SVG/1.1/DTD/svg11.dtd" >
<svg xmlns="http://www.w3.org/2000/svg">
<metadata></metadata>
<defs>
<font id="25HelveticaUltraLightRegular" horiz-adv-x="1024" >
<font-face units-per-em="2048" ascent="1638" descent="-410" />
<missing-glyph horiz-adv-x="569" />
<glyph horiz-adv-x="0" />
<glyph horiz-adv-x="0" />
<glyph unicode="&#xd;" horiz-adv-x="0" />
<glyph unicode=" "  horiz-adv-x="569" />
<glyph unicode="&#x09;" horiz-adv-x="569" />
<glyph unicode="&#xa0;" horiz-adv-x="569" />
<glyph unicode="!" horiz-adv-x="379" d="M170 0v201h41v-201h-41zM170 373v1089h41v-1089h-41z" />
<glyph unicode="&#x22;" horiz-adv-x="569" d="M150 1001v461h40v-461h-40zM379 1001v461h41v-461h-41z" />
<glyph unicode="#" horiz-adv-x="1139" d="M72 469v41h266l49 362h-258v41h268l64 480h41l-64 -480h350l64 480h41l-64 -480h238v-41h-248l-49 -362h240v-41h-248l-64 -469h-41l64 469h-352l-64 -469h-41l64 469h-256zM379 510h350l49 362h-350z" />
<glyph unicode="$" horiz-adv-x="1139" d="M12 485h41q0 -460 490 -477v729q-171 39 -262 70.5t-158.5 106.5t-67.5 208.5t70 217.5q128 153 418 157v88h41v-90q217 -5 347 -111t140 -331h-41q-13 390 -446 401v-684q207 -52 298 -84t154.5 -108.5t63.5 -214t-74 -225.5t-192.5 -130.5t-249.5 -42.5v-180h-41v182 q-380 19 -491 291q-40 96 -40 227zM96 1122.5q0 -116.5 59.5 -182t145.5 -96t242 -64.5v676q-263 -5 -381 -141q-66 -76 -66 -192.5zM584 6q123 0 231.5 38t176 118t67.5 189t-41 173.5t-107.5 101t-139 56.5t-187.5 45v-721z" />
<glyph unicode="%" horiz-adv-x="1403" d="M43 1069.5q0 152.5 83 250t231 97.5t231.5 -97t83.5 -255q0 -207 -148 -301q-72 -47 -170 -47q-152 0 -231.5 100t-79.5 252.5zM84 1056.5q0 -76.5 30 -146.5q66 -152 240 -152q87 0 150 41q127 83 127 264q0 145 -69.5 229t-207.5 84q-199 0 -254 -186 q-16 -57 -16 -133.5zM180 -70l975 1532h47l-975 -1532h-47zM731 322q0 216 143 308q71 46 170.5 46t171.5 -45q144 -91 144 -307q0 -149 -85 -249t-235 -100t-229.5 100t-79.5 247zM772 322q0 -132 70 -219t200 -87q88 0 151 42q126 82 126 264q0 145 -69.5 229t-207.5 84 q-199 0 -254 -187q-16 -56 -16 -126z" />
<glyph unicode="&#x26;" horiz-adv-x="1176" d="M90 315.5q0 95.5 35 167.5t91.5 128t112.5 95t154 101q-22 32 -62 81.5t-76 101.5q-79 114 -79 200q0 131 89.5 201.5t190.5 70.5t169 -32t108.5 -94.5t40.5 -147.5t-47.5 -154.5t-125 -127.5t-148.5 -109l385 -488q49 113 49 258h41q0 -154 -62 -295l215 -272h-53 l-182 231q-146 -266 -428 -266q-105 0 -201.5 44.5t-156.5 127.5t-60 178.5zM131 326.5q0 -147.5 112 -234t265 -86.5q272 0 401 264l-401 504q-124 -79 -164 -106t-94 -78q-119 -116 -119 -263.5zM307 1194q0 -66 35 -123q46 -73 176 -244q147 99 226 175.5t79 187.5 q0 70 -35 122t-94.5 80.5t-126.5 28.5q-109 0 -184.5 -62t-75.5 -165z" />
<glyph unicode="'" horiz-adv-x="342" d="M152 1001v461h41v-461h-41z" />
<glyph unicode="(" horiz-adv-x="455" d="M139 578q0 479 238 919h41q-238 -438 -238 -929t240 -930h-41q-183 354 -225 690q-15 119 -15 250z" />
<glyph unicode=")" horiz-adv-x="455" d="M35 1497h41q164 -319 213 -612q26 -157 26 -328q0 -484 -237 -919h-41q237 439 237 932.5t-239 926.5z" />
<glyph unicode="*" horiz-adv-x="721" d="M66 1225l12 39l258 -88v286h41v-286l270 88l8 -39l-266 -88l170 -224l-33 -24l-170 221l-172 -213l-32 27l180 213z" />
<glyph unicode="+" horiz-adv-x="1229" d="M98 498v41h496v497h41v-497h495v-41h-495v-498h-41v498h-496z" />
<glyph unicode="," horiz-adv-x="569" d="M215 -203q49 49 49 203v201h41v-201q0 -97 -20 -152.5t-70 -91.5v41z" />
<glyph unicode="-" horiz-adv-x="682" d="M162 528v41h358v-41h-358z" />
<glyph unicode="." horiz-adv-x="569" d="M264 0v201h41v-201h-41z" />
<glyph unicode="/" horiz-adv-x="682" d="M-14 -35l669 1532h41l-669 -1532h-41z" />
<glyph unicode="0" horiz-adv-x="1139" d="M43 696q0 427 219 618q119 103 308 103t307 -103q219 -193 219 -618t-219 -618q-118 -103 -307 -103t-308 103q-219 191 -219 618zM84 696q0 -399 199 -580q109 -100 287 -100t286.5 100.5t153.5 254.5t45 324.5t-45 325.5t-153.5 255t-287.5 100q-136 0 -231 -59 t-150 -157q-104 -184 -104 -464z" />
<glyph unicode="1" horiz-adv-x="1139" d="M236 1094v41q121 42 199.5 97.5t170.5 160.5h45v-1393h-41v1339h-4q-60 -83 -161 -148.5t-209 -96.5z" />
<glyph unicode="2" horiz-adv-x="1139" d="M113 0q0 156 135 290q83 81 255.5 199.5t264.5 194.5q205 172 205 358q0 160 -108 247t-264.5 87t-246.5 -55q-176 -107 -176 -385h-41q4 314 203 425q100 56 232.5 56t230.5 -42.5t154.5 -127.5t56.5 -199t-56.5 -208t-141.5 -168t-230.5 -175t-223.5 -161 q-190 -145 -208 -295h897v-41h-938z" />
<glyph unicode="3" horiz-adv-x="1139" d="M80 430q2 20 2 41h41q-2 -16 -2 -45q0 -130 58 -223t165 -140t232.5 -47t224 43t158 127.5t59.5 198.5q0 328 -400 344h-100v41h100q154 0 263.5 73.5t108 230.5t-114.5 229.5t-298 72.5t-300 -105.5t-115 -309.5h-41q0 222 127 339t348 117q260 0 376 -147 q60 -78 60 -208t-83 -213.5t-216 -96.5v-4q195 -22 281 -170q45 -79 45 -182t-37.5 -180.5t-103.5 -131.5q-132 -109 -345.5 -109t-353 120t-139.5 335z" />
<glyph unicode="4" horiz-adv-x="1139" d="M70 362v50l696 981h51v-990h252v-41h-252v-362h-41v362h-706zM111 403h665v932h-4z" />
<glyph unicode="5" horiz-adv-x="1139" d="M76 446h41q0 -203 120.5 -316.5t321.5 -113.5q130 0 231 55.5t155 157t54 232.5t-55 231t-155 155.5t-228 55.5t-231.5 -55.5t-159.5 -157.5h-51l149 703h715v-41h-682l-127 -596h4q115 188 381 188q141 0 250.5 -61.5t170 -171t60.5 -234t-34 -214.5t-100 -155 q-132 -133 -347 -133q-217 0 -349 123q-134 127 -134 348z" />
<glyph unicode="6" horiz-adv-x="1139" d="M80 610.5q0 188.5 27 322t87 242.5t162.5 175.5t234 66.5t224.5 -46.5t149 -126.5t70 -179h-41q-25 116 -89 187q-113 124 -302 124q-143 0 -239 -69.5t-149 -184.5q-95 -206 -95 -534h4q21 98 86.5 178t162.5 126t213 46t227 -62t179 -171t68 -246t-66.5 -248.5 t-176.5 -173.5t-240 -62t-238 65q-160 96 -214 252q-44 130 -44 318.5zM137 456.5q0 -118.5 59 -220.5t161 -161t220.5 -59t220.5 59t161 161t59 207t-34.5 186t-93.5 140q-128 128 -312 128q-119 0 -221 -59t-161 -161t-59 -220.5z" />
<glyph unicode="7" horiz-adv-x="1139" d="M125 1352v41h889v-56q-311 -311 -460 -608q-169 -339 -169 -729h-41q0 572 366 1058q112 149 259 294h-844z" />
<glyph unicode="8" horiz-adv-x="1139" d="M63 399q0 148 96.5 249t260.5 116v4q-123 15 -205 98t-82 201.5t57 197.5q111 152 379 152q269 0 379 -152q58 -79 58 -179t-38 -164q-78 -131 -249 -154v-4q223 -20 313 -188q43 -81 43 -203t-67 -215q-132 -183 -439 -183q-305 0 -438 183q-68 93 -68 241zM104 389 q0 -187 132 -280t333 -93q280 0 402 161q63 83 63 212q0 186 -130.5 269t-334.5 83q-284 0 -401 -146q-64 -79 -64 -206zM174 1075q0 -104 58 -168t148.5 -94.5t189.5 -30.5t189 30.5t148 94.5t58 168t-55 173q-102 128 -341 128q-238 0 -341 -128q-54 -69 -54 -173z" />
<glyph unicode="9" horiz-adv-x="1139" d="M80 918q0 120 37.5 208t106.5 154q142 137 337 137q194 0 339 -137q43 -42 75 -92t52 -120q34 -118 34 -297t-26 -308.5t-86.5 -241.5t-164 -179t-235.5 -67t-224.5 46t-149 127t-71.5 180h41q27 -118 90 -188q113 -124 302 -124q270 0 376.5 229.5t106.5 559.5h-4 q-31 -150 -160 -249q-131 -101 -295 -101q-122 0 -233 61t-179.5 171.5t-68.5 230.5zM121 936q0 -118 58.5 -220.5t161 -161t220.5 -58.5t220.5 58.5t161 161t58.5 220.5t-58.5 220.5t-161 161t-220.5 58.5t-220.5 -58.5t-161 -161t-58.5 -220.5z" />
<glyph unicode=":" horiz-adv-x="569" d="M264 0v201h41v-201h-41zM264 852v201h41v-201h-41z" />
<glyph unicode=";" horiz-adv-x="569" d="M215 -203q49 49 49 203v201h41v-201q0 -97 -20 -152.5t-70 -91.5v41zM264 852v201h41v-201h-41z" />
<glyph unicode="&#x3c;" horiz-adv-x="1229" d="M94 494v49l1041 510v-43l-1004 -492l1004 -491v-43z" />
<glyph unicode="=" horiz-adv-x="1229" d="M98 299v41h1032v-41h-1032zM98 696v41h1032v-41h-1032z" />
<glyph unicode="&#x3e;" horiz-adv-x="1229" d="M94 -16v43l1004 491l-1004 492v43l1041 -510v-49z" />
<glyph unicode="?" d="M72 1010q0 147 53 257.5t153.5 170t211 59.5t184.5 -23t129 -66q117 -90 117 -251q0 -179 -128 -300q-28 -26 -73 -66q-83 -81 -123 -135q-80 -106 -80 -283h-41q0 137 43 229q51 111 204 246q94 83 125.5 159t31.5 160t-46 151.5t-129.5 102.5t-200 35t-207.5 -54 q-183 -109 -183 -392h-41zM475 0v201h41v-201h-41z" />
<glyph unicode="@" horiz-adv-x="1638" d="M117 708q0 171 57.5 305.5t159.5 234.5q216 210 524 210q184 0 335 -75.5t239.5 -216t89.5 -324.5q0 -225 -146 -402q-66 -81 -144 -125.5t-143 -44.5t-98 34t-33 95h-4q-93 -129 -278 -129q-118 0 -198.5 86t-80.5 197t35 214t101 194t156 144.5t174 53.5t142 -21 q121 -44 158 -153h4l50 135h43l-228 -590q-35 -93 -35 -139q0 -80 85.5 -80t179 72t156 194t63 277t-80.5 286t-223.5 204t-328 73t-345.5 -92.5t-252.5 -253t-92.5 -365.5t94.5 -366t254.5 -242.5t345 -81.5t342.5 90t257.5 234h47q-156 -255 -454 -338q-94 -27 -210 -27 t-249 45.5t-239 138t-168 235.5t-62 314zM438 567q0 -108 70 -182t176 -74q221 0 315 246l146 377q-26 98 -102 141t-169 43t-173 -51.5t-139 -134.5q-124 -174 -124 -365z" />
<glyph unicode="A" horiz-adv-x="1178" d="M-25 0l594 1462h54l577 -1462h-45l-192 481h-746l-194 -481h-48zM233 522h713l-348 899h-4z" />
<glyph unicode="B" horiz-adv-x="1251" d="M96 0v1462h629q182 0 297 -94t115 -270q0 -133 -87 -228q-91 -98 -223 -106v-4q96 -3 177.5 -46.5t129.5 -125.5t48 -185.5t-34.5 -176.5t-99.5 -124q-128 -102 -348 -102h-604zM137 41h582q257 0 367 159q55 79 55 197.5t-59 196.5q-110 147 -357 147h-588v-700z M137 782h588q98 0 183.5 36t136.5 107t51 175.5t-48 177.5q-96 143 -323 143h-588v-639z" />
<glyph unicode="C" horiz-adv-x="1403" d="M51 719q0 305 163 528q82 113 214 181.5t291.5 68.5t269 -46.5t182 -118.5t111.5 -154.5t41 -153.5h-41q-6 79 -47.5 158t-112.5 140q-156 134 -383 134q-170 0 -297 -69t-204 -181q-146 -213 -146 -487q0 -295 164 -499q80 -99 196.5 -156.5t274 -57.5t285.5 73.5 t204 202t99 291.5h41q-24 -179 -107 -317t-220 -214.5t-322 -76.5t-336 96.5t-235.5 269t-84.5 388.5z" />
<glyph unicode="D" horiz-adv-x="1327" d="M111 0v1462h512q161 0 301.5 -67t230.5 -231.5t90 -432.5q0 -368 -207 -559q-188 -172 -479 -172h-448zM152 41h417q277 0 449 171q186 183 186 519q0 258 -83 412t-215.5 216t-293.5 62h-460v-1380z" />
<glyph unicode="E" horiz-adv-x="1100" d="M111 0v1462h970v-41h-929v-639h874v-41h-874v-700h938v-41h-979z" />
<glyph unicode="F" horiz-adv-x="985" d="M111 0v1462h901v-41h-860v-639h778v-41h-778v-741h-41z" />
<glyph unicode="G" horiz-adv-x="1479" d="M66 731.5q0 214.5 83 389.5t238.5 275.5t364.5 100.5q246 0 408 -132q165 -135 198 -359h-41q-25 133 -100.5 235.5t-196 158.5t-293 56t-319.5 -96.5t-224.5 -262.5t-77.5 -340.5t42 -306.5t124 -232q177 -212 486 -212q245 0 412 160q80 75 124.5 179t44.5 222v76h-567 v41h608v-686h-41v364h-4q-55 -186 -212 -291q-158 -106 -374 -106t-371 101.5t-233.5 276t-78.5 389z" />
<glyph unicode="H" horiz-adv-x="1327" d="M111 0v1462h41v-680h1024v680h41v-1462h-41v741h-1024v-741h-41z" />
<glyph unicode="I" horiz-adv-x="262" d="M111 0v1462h41v-1462h-41z" />
<glyph unicode="J" horiz-adv-x="948" d="M37 365v88h41v-88q0 -178 89.5 -268.5t258.5 -90.5q121 0 200 38q160 77 160 368v1050h41v-1081q0 -196 -95 -306t-306 -110q-260 0 -348 191q-41 90 -41 209z" />
<glyph unicode="K" horiz-adv-x="1214" d="M111 0v1462h41v-889l1013 889h62l-707 -622l748 -840h-56l-725 815l-335 -297v-518h-41z" />
<glyph unicode="L" horiz-adv-x="985" d="M111 0v1462h41v-1421h854v-41h-895z" />
<glyph unicode="M" horiz-adv-x="1597" d="M111 0v1462h67l619 -1409h4l618 1409h68v-1462h-41v1411h-4l-621 -1411h-45l-620 1411h-4v-1411h-41z" />
<glyph unicode="N" horiz-adv-x="1327" d="M111 0v1462h61l999 -1411h5v1411h41v-1462h-62l-999 1411h-4v-1411h-41z" />
<glyph unicode="O" horiz-adv-x="1477" d="M66 731q0 328 174 541q86 106 213 165.5t286.5 59.5t286 -59t213.5 -165q174 -212 174 -542q0 -329 -174 -541q-185 -225 -500 -225q-159 0 -286 60t-213 165q-174 214 -174 541zM106 731q6 -326 172 -521q174 -204 461 -204q291 0 463 204q166 198 170 521 q-4 324 -170 521q-172 204 -463 204q-193 0 -335.5 -92t-218.5 -257.5t-79 -375.5z" />
<glyph unicode="P" horiz-adv-x="1176" d="M111 0v1462h591q285 0 392 -179q53 -89 53 -217.5t-59 -218.5q-120 -181 -406 -181h-530v-666h-41zM152 707h550q245 0 352 165q52 81 52 191q0 173 -101.5 265.5t-302.5 92.5h-550v-714z" />
<glyph unicode="Q" horiz-adv-x="1477" d="M66 731q0 328 174 541q86 106 213 165.5t286.5 59.5t286 -59t213.5 -165q174 -212 174 -561.5t-217 -566.5l236 -161l-21 -29l-242 164q-176 -154 -430 -154q-159 0 -286 60t-213 165q-174 214 -174 541zM106 731q6 -326 172 -521q174 -204 461 -204q234 0 394 137 l-259 176l23 33l264 -182q207 199 211 561q-4 324 -170 521q-172 204 -463 204q-193 0 -335.5 -92t-218.5 -257.5t-79 -375.5z" />
<glyph unicode="R" horiz-adv-x="1251" d="M111 0v1462h598q224 0 332.5 -92t113.5 -283q0 -198 -142 -302q-71 -52 -171 -74v-4q223 -30 267 -197q21 -79 21 -266.5t35 -243.5h-45q-30 76 -30 257t-29 262t-112 124t-247 43h-550v-686h-41zM152 727h546q111 0 206.5 39.5t152.5 121t57 204.5q-3 329 -395 329h-567 v-694z" />
<glyph unicode="S" horiz-adv-x="1251" d="M70 485h41q0 -479 530 -479q123 0 231.5 38t176 118t67.5 191t-45 177.5t-118.5 103.5t-125 49.5t-207 48.5t-220.5 54.5t-136 59.5q-151 87 -151 280.5t146 282t365 88.5t356.5 -105t147.5 -339h-41q-7 212 -134 307.5t-341 95.5q-267 0 -390 -139q-68 -76 -68 -183.5 t42 -168.5t107.5 -94.5t170 -59.5t243 -60.5t226 -65.5t151 -108t63.5 -214t-74 -225t-192.5 -130.5t-269 -42.5t-278.5 53.5t-200.5 170.5t-72.5 296z" />
<glyph unicode="T" d="M-35 1421v41h1094v-41h-527v-1421h-40v1421h-527z" />
<glyph unicode="U" horiz-adv-x="1294" d="M111 545v917h41v-917q0 -539 495 -539q330 0 441 244q55 120 55 295v917h41v-917q0 -433 -308 -544q-99 -36 -250.5 -36t-271.5 65q-243 132 -243 515z" />
<glyph unicode="V" horiz-adv-x="1102" d="M-37 1462h41l553 -1409h4l537 1409h41l-557 -1462h-45z" />
<glyph unicode="W" horiz-adv-x="1782" d="M-20 1462h43l413 -1411h4l422 1411h60l428 -1411h4l407 1411h41l-424 -1462h-55l-430 1411h-4l-422 -1411h-55z" />
<glyph unicode="X" horiz-adv-x="1065" d="M-55 0l563 752l-533 710h54l506 -678l509 678h52l-533 -710l557 -752h-51l-534 719l-539 -719h-51z" />
<glyph unicode="Y" horiz-adv-x="1102" d="M-61 1462h51l561 -803l563 803h49l-592 -846v-616h-41v616z" />
<glyph unicode="Z" d="M-39 0v55l1022 1366h-965v41h1006v-55l-1022 -1366h1038v-41h-1079z" />
<glyph unicode="[" horiz-adv-x="455" d="M197 -362v1859h231v-41h-190v-1778h190v-40h-231z" />
<glyph unicode="\" horiz-adv-x="682" d="M-14 1497h41l669 -1532h-41z" />
<glyph unicode="]" horiz-adv-x="455" d="M27 -322h190v1778h-190v41h231v-1859h-231v40z" />
<glyph unicode="^" horiz-adv-x="1229" d="M121 465l473 928h41l473 -928h-41l-453 887l-452 -887h-41z" />
<glyph unicode="_" d="M0 -154h1024v-102h-1024v102z" />
<glyph unicode="`" horiz-adv-x="266" d="M-78 1497h60l256 -295h-31z" />
<glyph unicode="a" horiz-adv-x="985" d="M45 260q0 176 98.5 240t231.5 72.5t218.5 15t132.5 20.5q93 28 93 137q0 79 -20.5 141.5t-89 106t-215 43.5t-239 -80t-103.5 -229h-41q8 157 110.5 253.5t273.5 96.5t266 -70t99 -231v-670q0 -69 82 -69q19 0 51 4v-41q-14 -2 -59 -2q-115 0 -115 104v138h-4 q-30 -106 -146 -185q-117 -80 -274.5 -80t-253.5 74.5t-96 210.5zM86 260q0 -102 74 -173t219.5 -71t242 57t147 151.5t50.5 199.5v194h-4q-43 -62 -222 -72q-77 -5 -206.5 -13.5t-215 -64t-85.5 -208.5z" />
<glyph unicode="b" horiz-adv-x="1100" d="M113 0v1462h41v-704h4q39 147 148.5 233t273.5 86q208 0 332 -163q116 -155 116 -390q0 -157 -54.5 -283t-156.5 -196t-248 -70t-257.5 88t-153.5 232h-4v-295h-41zM154 534.5q0 -148.5 51 -264.5t147.5 -185t227.5 -69t223 69t138 184.5t46 234t-24 208t-73 163.5 q-108 161 -310 161q-128 0 -224.5 -60.5t-149 -176.5t-52.5 -264.5z" />
<glyph unicode="c" d="M63 510.5q0 150.5 54.5 281.5t166 208t271.5 77q100 0 186.5 -40.5t142 -118.5t68.5 -185h-41q-32 198 -192 269q-75 34 -164 34q-159 0 -259.5 -77.5t-146 -199t-45.5 -237.5t28.5 -205t82.5 -156q117 -145 315 -145q104 0 189.5 41.5t138.5 120t62 180.5h41 q-24 -238 -218 -336q-93 -47 -224.5 -47t-238.5 71t-162 192.5t-55 272z" />
<glyph unicode="d" horiz-adv-x="1100" d="M57 524q0 231 117 390q122 163 332 163q164 0 274.5 -86.5t147.5 -232.5h4v704h41v-1462h-41v295h-4q-42 -143 -153 -231.5t-269 -88.5q-205 0 -328 156q-121 154 -121 393zM98 524q0 -214 104 -358q110 -150 304 -150q131 0 228 69.5t147.5 185t50.5 264t-52.5 264.5 t-149 176.5t-212 60.5t-194 -43t-128.5 -117q-98 -147 -98 -352z" />
<glyph unicode="e" d="M51 526q0 166 64.5 293t170.5 192.5t224.5 65.5t205 -42.5t144.5 -118.5q113 -150 113 -398h-881q3 -228 104 -365t312 -137q165 0 274 90q116 93 138 259h41q-15 -118 -75 -206.5t-157 -136t-235.5 -47.5t-241.5 71q-201 137 -201 480zM92 559h840q0 130 -48.5 239.5 t-142 173.5t-216.5 64t-217.5 -58t-151.5 -167t-64 -252z" />
<glyph unicode="f" horiz-adv-x="418" d="M-2 1012v41h180v233q0 78 31.5 116.5t74.5 49t84 10.5t105 -8v-41q-52 8 -107 8t-88.5 -15.5t-46 -47t-12.5 -86.5v-219h227v-41h-227v-1012h-41v1012h-180z" />
<glyph unicode="g" horiz-adv-x="1063" d="M57 561q0 143 52 261t155.5 186.5t223.5 68.5t204 -41q173 -82 217 -264h4v281h41v-1018q0 -281 -202 -376q-98 -46 -253.5 -46t-267.5 82t-116 250h41q6 -148 106 -219.5t252 -71.5q399 0 399 381v317h-4q-20 -88 -83.5 -156t-150.5 -103.5t-179 -35.5q-209 0 -324 145 t-115 359zM98 561.5q0 -131.5 46.5 -237.5t135.5 -166t201 -60t190.5 35.5t132 99.5t80.5 148t27 194.5t-46.5 219t-138 175t-219.5 66.5t-221 -63.5t-140.5 -171.5t-47.5 -239.5z" />
<glyph unicode="h" d="M113 0v1462h41v-669h4q31 125 127 203q102 81 231.5 81t215 -44.5t132.5 -130t47 -204.5v-698h-41v692q0 116 -44 194q-86 150 -289 150q-120 0 -207.5 -59.5t-131.5 -159.5t-44 -221v-596h-41z" />
<glyph unicode="i" horiz-adv-x="266" d="M113 0v1053h41v-1053h-41zM113 1255v207h41v-207h-41z" />
<glyph unicode="j" horiz-adv-x="266" d="M-100 -322q90 0 132 10t61.5 49t19.5 124v1192h41v-1207q0 -168 -106 -194q-50 -12 -148 -14v40zM113 1255v207h41v-207h-41z" />
<glyph unicode="k" horiz-adv-x="909" d="M113 0v1462h41v-1013l727 604h59l-483 -402l518 -651h-55l-494 623l-272 -226v-397h-41z" />
<glyph unicode="l" horiz-adv-x="266" d="M113 0v1462h41v-1462h-41z" />
<glyph unicode="m" horiz-adv-x="1593" d="M113 0v1053h41v-260h4q31 124 123.5 204t214.5 80t204.5 -64.5t108.5 -181.5h4q32 111 123.5 178.5t210.5 67.5q182 0 258 -100.5t76 -284.5v-692h-41v692q0 170 -65 257t-228 87q-99 0 -174 -50q-152 -101 -156 -318v-668h-41v676q0 109 -24 188q-51 172 -258 172 q-101 0 -178.5 -60t-119.5 -161t-42 -219v-596h-41z" />
<glyph unicode="n" d="M113 0v1053h41v-260h4q31 125 127 203q102 81 231.5 81t215 -44.5t132.5 -130t47 -204.5v-698h-41v692q0 116 -44 194q-86 150 -289 150q-120 0 -207.5 -59.5t-131.5 -159.5t-44 -221v-596h-41z" />
<glyph unicode="o" horiz-adv-x="1063" d="M57 546.5q0 126.5 55.5 252.5t164 202t239 76t219 -44.5t149.5 -121.5q122 -156 122 -385q0 -147 -55.5 -273.5t-163.5 -202t-237 -75.5t-219 44t-151.5 122.5t-92 178.5t-30.5 226.5zM98 525q0 -133 50 -251t149 -188t234 -70t234 70.5t149.5 188t50.5 250.5t-51 251 t-149.5 189t-233.5 71t-233.5 -71t-149 -189t-50.5 -251z" />
<glyph unicode="p" horiz-adv-x="1100" d="M113 -362v1415h41v-295h4q42 144 153.5 231.5t268.5 87.5q207 0 330 -156q118 -150 118 -388.5t-120 -398t-328 -159.5q-164 0 -273.5 86.5t-148.5 233.5h-4v-657h-41zM154 528q0 -239 116.5 -375.5t309.5 -136.5q135 0 227.5 74t136 191.5t43.5 251t-46.5 250t-138 185 t-222.5 68.5t-227.5 -68.5t-147.5 -185t-51 -254.5z" />
<glyph unicode="q" horiz-adv-x="1100" d="M57 528q0 158 54.5 283.5t156 195.5t249 70t258.5 -88t153 -231h4v295h41v-1415h-41v657h-4q-37 -146 -147.5 -233t-274.5 -87q-209 0 -332 165q-117 158 -117 388zM98 528q0 -129 43.5 -246.5t136.5 -191.5t228 -74q195 0 310.5 135.5t115.5 376.5q0 138 -51 254 t-147.5 185t-211 69t-192.5 -40t-129 -110q-103 -140 -103 -358z" />
<glyph unicode="r" horiz-adv-x="530" d="M113 0v1053h41v-260h4q43 175 204 246q87 38 209 38v-41q-141 0 -235 -62q-182 -119 -182 -378v-596h-41z" />
<glyph unicode="s" horiz-adv-x="948" d="M61 360h41q0 -170 99.5 -257t285.5 -87q193 0 289 108q51 57 51 142t-49 134t-110 68.5t-189 52.5q-188 49 -252 76q-125 55 -125 216q0 65 36.5 125t116.5 99.5t204 39.5q182 0 281.5 -83t99.5 -253h-41q0 151 -91 223t-264 72t-237 -77.5t-64 -145.5q0 -138 117 -184 q76 -27 148 -45.5t122 -32.5q166 -41 252 -95.5t86 -187.5q0 -100 -55 -166q-106 -127 -326 -127q-426 0 -426 385z" />
<glyph unicode="t" horiz-adv-x="494" d="M-10 1012v41h194v331h41v-331h238v-41h-238v-807q0 -132 71 -155q30 -9 85.5 -9t75.5 6v-41q-57 -6 -101 -6q-172 0 -172 197v815h-194z" />
<glyph unicode="u" d="M113 354v699h41v-693q0 -227 164 -307q75 -37 168 -37t164.5 34.5t121.5 97.5q98 124 98 309v596h41v-1053h-41v260h-4q-30 -126 -129.5 -205.5t-258.5 -79.5t-262 100.5t-103 278.5z" />
<glyph unicode="v" horiz-adv-x="834" d="M-25 1053h50l407 -1012h4l377 1012h45l-397 -1053h-51z" />
<glyph unicode="w" horiz-adv-x="1403" d="M-16 1053h41l313 -1012h4l326 1012h63l324 -1012h4l319 1012h41l-336 -1053h-53l-328 1012h-4l-329 -1012h-58z" />
<glyph unicode="x" horiz-adv-x="834" d="M-31 0l422 545l-383 508h53l355 -478l362 478h49l-385 -508l422 -545h-51l-397 514l-396 -514h-51z" />
<glyph unicode="y" horiz-adv-x="834" d="M-25 1053h45l418 -998l377 998h43l-485 -1268q-38 -97 -100 -122t-179 -25v40q78 0 120 8q83 16 126 128l76 196z" />
<glyph unicode="z" horiz-adv-x="834" d="M10 0v51l738 961h-682v41h725v-52l-738 -960h770v-41h-813z" />
<glyph unicode="{" horiz-adv-x="682" d="M174 553v41q64 10 106 111.5t42 230.5v338q0 119 32.5 171t116.5 52h102v-41h-98q-81 0 -102 -86q-11 -46 -11 -133v-336q0 -152 -65 -257q-34 -54 -82 -75q68 -32 107.5 -124.5t39.5 -211.5v-331q0 -130 26 -177t87 -47h98v-40h-102q-108 0 -135 98q-14 50 -14 129v334 q0 179 -56 265q-33 50 -92 89z" />
<glyph unicode="|" horiz-adv-x="455" d="M207 -35v1532h41v-1532h-41z" />
<glyph unicode="}" horiz-adv-x="682" d="M109 -322h98q42 0 66 20q46 38 46 200v335q0 104 38 203t110 129q-67 33 -107.5 126.5t-40.5 209.5v332q0 169 -47 205q-25 18 -65 18h-98v41h102q84 0 116.5 -53t32.5 -174v-334q0 -134 31.5 -216t116.5 -138v-41q-42 -7 -76 -57q-72 -104 -72 -285v-338 q0 -121 -32.5 -172t-116.5 -51h-102v40z" />
<glyph unicode="~" horiz-adv-x="1229" d="M158 432q95 178 241 178q91 0 240 -69q118 -51 152 -61.5t73 -10.5q69 0 166 147l41 -12q-48 -80 -99.5 -128t-123.5 -48q-56 0 -118.5 29.5t-94.5 44t-67 30.5q-83 37 -169 37q-114 0 -200 -149z" />
<glyph unicode="&#xa1;" horiz-adv-x="379" d="M170 -362v1099h41v-1099h-41zM170 909v201h41v-201h-41z" />
<glyph unicode="&#xa2;" horiz-adv-x="1139" d="M121 528q0 217 113 374q120 167 323 173v180h41v-180q166 -5 279.5 -92.5t130.5 -249.5h-41q-22 146 -121 222t-248 79v-1018h10q149 0 251.5 97t117.5 245h41q-30 -240 -218 -336q-89 -45 -202 -47v-223h-41v223q-208 8 -327 175q-109 154 -109 378zM162 527.5 q0 -129.5 44 -245t134 -188t217 -78.5v1018q-126 -4 -216.5 -77t-134.5 -186.5t-44 -243z" />
<glyph unicode="&#xa3;" horiz-adv-x="1139" d="M80 6q242 206 242 422q0 170 -66 279h-156v41h136q-9 19 -40.5 76.5t-53.5 106.5q-50 111 -50 185q0 122 64 209q125 172 399 172q219 0 346 -117q129 -119 129 -325q0 -22 -4 -72h-41q2 21 2 61q0 265 -206 364q-98 48 -217 48t-216 -36t-156 -112t-59 -192 q0 -59 22 -117.5t71 -147t57 -103.5h323v-41h-305q61 -109 61 -279q0 -220 -202 -391l4 -4q99 76 209 76q61 0 165.5 -38t149 -51.5t109 -13.5t131.5 40.5t157 129.5l27 -29q-88 -100 -166.5 -141t-150 -41t-117 13t-118 40t-110.5 38.5t-77 11.5q-130 0 -256 -103z" />
<glyph unicode="&#xa4;" horiz-adv-x="1139" d="M62.5 697.5q1.5 197.5 134.5 342.5l-117 117l29 29l116 -117q148 135 346 135t342 -135l117 117l29 -29l-117 -117q135 -144 135 -341t-135 -347l117 -116l-29 -29l-117 117q-145 -133 -342.5 -134.5t-345.5 134.5l-116 -117l-29 29l117 116q-136 148 -134.5 345.5z M102 696q0 -126 63 -233.5t170.5 -170.5t233.5 -63t233.5 63t170.5 170.5t63 233.5t-62.5 234t-170.5 170.5t-234 62.5t-233.5 -63t-170.5 -170.5t-63 -233.5z" />
<glyph unicode="&#xa5;" horiz-adv-x="1139" d="M43 1462h45l479 -784h4l480 784h45l-486 -796h279v-41h-301v-209h301v-41h-301v-375h-41v375h-301v41h301v209h-301v41h282z" />
<glyph unicode="&#xa6;" horiz-adv-x="455" d="M207 -35v590h41v-590h-41zM207 907v590h41v-590h-41z" />
<glyph unicode="&#xa7;" horiz-adv-x="1139" d="M117 700q0 78 31 136t84 102t108 63q-50 45 -79.5 96t-29.5 142t54 152q94 106 270 106q105 0 185 -47q165 -97 165 -332h-41q-5 161 -83.5 249.5t-229.5 88.5t-234 -96q-45 -53 -43.5 -132t30 -123t82 -83.5t139.5 -86.5t172.5 -103t153.5 -109t103 -99q68 -84 68 -195 t-79.5 -188t-160.5 -102q70 -57 95.5 -114.5t25.5 -137.5q-10 -134 -104.5 -204t-247.5 -70t-246.5 102t-93.5 295h41q0 -352 317 -356q97 0 163.5 37t98 91.5t31.5 109t-11 93t-45 76t-83.5 73.5t-130 87t-147.5 93t-107 69q-137 93 -179 166t-42 151zM158 719 q0 -59 14 -101q31 -98 190 -202q117 -71 245 -156.5t136 -91.5q47 10 103.5 44t95.5 87t39 113.5t-13.5 103t-50.5 86.5q-97 117 -394 286q-88 50 -146 85q-110 -32 -179 -136q-40 -59 -40 -118z" />
<glyph unicode="&#xa8;" horiz-adv-x="266" d="M-47 1208v166h41v-166h-41zM272 1208v166h41v-166h-41z" />
<glyph unicode="&#xa9;" horiz-adv-x="1638" d="M53 731q0 208 102.5 384.5t279 279t359 102.5t322 -58.5t246 -165t165 -246t58.5 -322t-102.5 -359t-279 -279t-384.5 -102.5t-384.5 102.5t-279 279t-102.5 384.5zM94 731q0 -196 97.5 -363t264.5 -264.5t363 -97.5t363.5 97.5t264.5 264.5t97 339.5t-55.5 305 t-155.5 232.5t-232.5 155.5t-305 55.5t-339.5 -97t-264.5 -264.5t-97.5 -363.5zM391 719q0 135 53.5 241t154.5 166t217.5 60t197.5 -36t134 -106t66 -167h-40q-19 128 -114 198t-222 70t-218.5 -54.5t-139.5 -151.5t-48 -201.5t28 -184t82 -139.5q114 -127 300 -127 q116 0 208 74.5t124 203.5h40q-21 -93 -74 -166q-111 -153 -298 -153q-200 0 -326 136q-125 134 -125 337z" />
<glyph unicode="&#xaa;" horiz-adv-x="614" d="M0 919q0 80 34 121t87 56.5t123 19.5t111.5 5.5t74.5 8.5q74 16 74 80q0 88 -48.5 127t-150.5 39q-198 0 -221 -172h-41q23 213 259.5 213t242.5 -182v-389q0 -23 15 -31t54 -8v-41q-52 0 -81 10.5t-29 52.5v84h-4v-14q-21 -69 -91 -108t-174 -39t-169.5 43.5 t-65.5 123.5zM41 931q0 -74 55 -106t133 -32q127 0 201 67.5t74 171.5v98h-4q-16 -23 -50.5 -32.5t-100.5 -13.5t-131.5 -10t-121 -37.5t-55.5 -105.5z" />
<glyph unicode="&#xab;" horiz-adv-x="721" d="M135 532v33l211 285v-72l-170 -229l170 -230v-71zM326 532v33l211 285v-72l-170 -229l170 -230v-71z" />
<glyph unicode="&#xac;" horiz-adv-x="1229" d="M98 696v41h1032v-547h-40v506h-992z" />
<glyph unicode="&#xad;" horiz-adv-x="682" d="M162 528v41h358v-41h-358z" />
<glyph unicode="&#xae;" horiz-adv-x="1638" d="M53 731q0 208 102.5 384.5t279 279t359 102.5t322 -58.5t246 -165t165 -246t58.5 -322t-102.5 -359t-279 -279t-384.5 -102.5t-384.5 102.5t-279 279t-102.5 384.5zM94 731q0 -196 97.5 -363t264.5 -264.5t363 -97.5t363.5 97.5t264.5 264.5t97 339.5t-55.5 305 t-155.5 232.5t-232.5 155.5t-305 55.5t-339.5 -97t-264.5 -264.5t-97.5 -363.5zM561 276v881h289q146 0 218.5 -61t72.5 -176q0 -140 -114 -198q-52 -27 -116 -32l271 -414h-52l-264 410q-20 -2 -63 -2h-201v-408h-41zM602 725h213q120 0 202.5 38.5t82.5 156.5 q0 196 -254 196h-244v-391z" />
<glyph unicode="&#xaf;" horiz-adv-x="266" d="M-104 1286v41h475v-41h-475z" />
<glyph unicode="&#xb0;" horiz-adv-x="819" d="M117 1122q0 80 39 148t107 107.5t146.5 39.5t147 -40t107 -107.5t38.5 -146.5t-39 -148t-106.5 -108.5t-147.5 -39.5t-147 39t-106 107.5t-39 148.5zM158 1120.5q0 -67.5 34 -126.5t92.5 -92.5t125.5 -33.5q108 0 180 74.5t72 181.5q0 66 -32.5 124.5t-90.5 93t-127 34.5 t-127 -35.5t-92.5 -94t-34.5 -126z" />
<glyph unicode="&#xb1;" horiz-adv-x="1229" d="M98 0v41h1032v-41h-1032zM98 590v41h496v405h41v-405h495v-41h-495v-406h-41v406h-496z" />
<glyph unicode="&#xb2;" horiz-adv-x="682" d="M37 567q0 135 161 243q33 22 124.5 82t141.5 101q118 95 118 211q0 86 -65.5 129t-172.5 43q-250 0 -250 -248h-41q3 144 71 216.5t220 72.5q172 0 242 -93q37 -49 37 -114t-21 -114q-45 -101 -250 -232q-129 -83 -196 -141.5t-72 -114.5h563v-41h-610z" />
<glyph unicode="&#xb3;" horiz-adv-x="682" d="M23 850h40q0 -130 78.5 -193t210.5 -63q155 0 230 94q36 47 36 115.5t-36 111.5q-68 80 -228 80h-49v43h53q105 0 174.5 41.5t69.5 134t-67 127.5t-179 35q-266 0 -266 -231h-41q0 130 84 201t214.5 71t213 -47t82.5 -144.5t-59 -152.5t-150 -55v-4q99 -6 162 -60 t63 -141.5t-41.5 -144t-112 -86t-151.5 -29.5q-153 0 -242 75.5t-89 221.5z" />
<glyph unicode="&#xb4;" horiz-adv-x="266" d="M20 1202l271 295h59l-299 -295h-31z" />
<glyph unicode="&#xb5;" horiz-adv-x="1139" d="M170 -362v1415h39v-693q0 -226 165 -307q75 -37 168 -37t164.5 34.5t121.5 97.5q98 124 98 309v596h41v-1053h-41v260h-4q-28 -126 -128.5 -205.5t-229.5 -79.5q-263 0 -349 191h-4v-528h-41z" />
<glyph unicode="&#xb6;" horiz-adv-x="1229" d="M135 1061q0 192 120 296.5t337 104.5h414v-1749h-41v1708h-334v-1708h-41v959q-198 0 -328 114q-60 54 -93.5 126.5t-33.5 148.5z" />
<glyph unicode="&#xb8;" horiz-adv-x="266" d="M-51 -340l18 39q97 -33 157 -33t106 26t46 74t-36 69.5t-88 21.5t-99 -27l-30 20l116 150h41l-84 -115q5 1 26 7t65 6t87 -29.5t43 -93.5q0 -150 -200 -150q-63 0 -168 35z" />
<glyph unicode="&#xb9;" horiz-adv-x="682" d="M127 1208v39q80 26 131 60t109 96h45v-836h-41v789h-4q-76 -101 -240 -148z" />
<glyph unicode="&#xba;" horiz-adv-x="614" d="M0 1087q0 87 36 163t105.5 121.5t167 45.5t167 -45t105 -121.5t35.5 -164t-36 -165t-106.5 -123.5t-166.5 -46q-142 0 -224.5 98t-82.5 237zM41 1087q0 -116 73.5 -205t194.5 -89q81 0 141.5 42t92.5 110t32 141.5t-32.5 140.5t-92.5 108t-141 41t-142 -41t-93.5 -108 t-32.5 -140z" />
<glyph unicode="&#xbb;" horiz-adv-x="721" d="M184 248v71l170 230l-170 229v72l211 -285v-33zM375 248v71l170 230l-170 229v72l211 -285v-33z" />
<glyph unicode="&#xbc;" horiz-adv-x="1708" d="M209 1208v39q78 26 130 60t110 96h45v-836h-41v789h-4q-76 -101 -240 -148zM295 -70l975 1532h47l-975 -1532h-47zM848 209v51l442 576h51v-586h156v-41h-156v-209h-41v209h-452zM891 250h409v530z" />
<glyph unicode="&#xbd;" horiz-adv-x="1708" d="M133 1208v39q80 26 131 60t109 96h45v-836h-41v789h-4q-66 -97 -240 -148zM199 -70l975 1532h47l-975 -1532h-47zM967 0q0 135 164 246q38 25 144 94t171 136.5t65 156.5t-65 132.5t-172 43.5q-250 0 -250 -248h-41q3 143 71 216t205.5 73t215 -53t77.5 -160 q0 -60 -22 -109q-43 -100 -248 -231q-129 -83 -196 -141.5t-72 -114.5h563v-41h-610z" />
<glyph unicode="&#xbe;" horiz-adv-x="1708" d="M113 850h41q0 -130 77.5 -193t210.5 -63q156 0 230 94q37 47 37 115.5t-37 112.5q-68 81 -228 81q-32 0 -49 -2v43h54q104 0 173.5 41.5t69.5 134t-67 127.5t-179 35q-266 0 -266 -231h-41q0 130 84 201t215 71q295 0 295 -205q0 -84 -59 -139t-150 -55v-4 q99 -6 162.5 -60t63.5 -141.5t-42 -144.5q-86 -115 -251.5 -115t-254.5 75.5t-89 221.5zM406 -70l974 1532h47l-974 -1532h-47zM946 209v51l443 576h51v-586h155v-41h-155v-209h-41v209h-453zM989 250h410v530z" />
<glyph unicode="&#xbf;" d="M104 -59.5q0 144.5 55 222.5t144 156q119 116 161 197t42 221h41q0 -137 -43 -229.5t-158 -204.5q-18 -16 -51 -44t-67 -71q-83 -103 -83 -216t46 -180.5t129.5 -102.5t187.5 -35q194 0 298.5 118.5t104.5 327.5h41q0 -147 -53 -257.5t-153.5 -170t-210.5 -59.5t-184 23 t-130 68q-117 92 -117 236.5zM508 909v201h41v-201h-41z" />
<glyph unicode="&#xc0;" horiz-adv-x="1178" d="M-25 0l594 1462h54l577 -1462h-45l-192 481h-746l-194 -481h-48zM233 522h713l-348 899h-4zM379 1862h60l256 -295h-31z" />
<glyph unicode="&#xc1;" horiz-adv-x="1178" d="M-25 0l594 1462h54l577 -1462h-45l-192 481h-746l-194 -481h-48zM233 522h713l-348 899h-4zM477 1567l271 295h59l-299 -295h-31z" />
<glyph unicode="&#xc2;" horiz-adv-x="1178" d="M-25 0l594 1462h54l577 -1462h-45l-192 481h-746l-194 -481h-48zM233 522h713l-348 899h-4zM342 1577l232 285h30l234 -285h-41l-211 252l-203 -252h-41z" />
<glyph unicode="&#xc3;" horiz-adv-x="1178" d="M-25 0l594 1462h54l577 -1462h-45l-192 481h-746l-194 -481h-48zM233 522h713l-348 899h-4zM320 1598q0 58 43 110t86.5 52t74 -15.5t79.5 -48.5t70 -44t56.5 -11t62.5 33.5t27 79.5h41q0 -63 -37.5 -108.5t-103.5 -45.5q-32 0 -58 12.5t-71.5 44.5t-72 47t-55.5 15 t-52 -18q-49 -40 -49 -103h-41z" />
<glyph unicode="&#xc4;" horiz-adv-x="1178" d="M-25 0l594 1462h54l577 -1462h-45l-192 481h-746l-194 -481h-48zM233 522h713l-348 899h-4zM410 1573v166h41v-166h-41zM729 1573v166h41v-166h-41z" />
<glyph unicode="&#xc5;" horiz-adv-x="1178" d="M-25 0l594 1462h54l577 -1462h-45l-192 481h-746l-194 -481h-48zM233 522h713l-348 899h-4zM410 1687q0 73 54 127t113.5 54t101 -25t66.5 -66.5t25 -89.5t-24.5 -89.5t-66 -66t-101 -24.5t-114 53.5t-54.5 126.5zM451 1678q0 -46 41 -88t98 -42t98 42t41 88t-19 79 q-41 70 -120 70t-120 -70q-19 -33 -19 -79z" />
<glyph unicode="&#xc6;" horiz-adv-x="1745" d="M-25 0l775 1462h960v-41h-803v-639h738v-41h-738v-700h803v-41h-844v561h-549l-297 -561h-45zM338 602h528v823h-96z" />
<glyph unicode="&#xc7;" horiz-adv-x="1403" d="M51 719q0 305 163 528q82 113 214 181.5t291.5 68.5t269 -46.5t182 -118.5t111.5 -154.5t41 -153.5h-41q-6 79 -47.5 158t-112.5 140q-156 134 -383 134q-170 0 -297 -69t-204 -181q-146 -213 -146 -487q0 -295 164 -499q80 -99 196.5 -156.5t274 -57.5t285.5 73.5 t204 202t99 291.5h41q-24 -177 -106 -315t-217 -215t-310 -78l-59 -80q7 1 26.5 7t64 6t87.5 -29.5t43 -93.5q0 -150 -201 -150q-63 0 -168 35l19 39q97 -33 156.5 -33t106 26t46.5 74t-37 69.5t-89 21.5t-97 -27l-31 20l90 117q-282 16 -454 223q-175 210 -175 529z" />
<glyph unicode="&#xc8;" horiz-adv-x="1100" d="M111 0v1462h970v-41h-929v-639h874v-41h-874v-700h938v-41h-979zM340 1862h60l256 -295h-31z" />
<glyph unicode="&#xc9;" horiz-adv-x="1100" d="M111 0v1462h970v-41h-929v-639h874v-41h-874v-700h938v-41h-979zM438 1567l271 295h59l-299 -295h-31z" />
<glyph unicode="&#xca;" horiz-adv-x="1100" d="M111 0v1462h970v-41h-929v-639h874v-41h-874v-700h938v-41h-979zM303 1577l232 285h30l234 -285h-41l-211 252l-203 -252h-41z" />
<glyph unicode="&#xcb;" horiz-adv-x="1100" d="M111 0v1462h970v-41h-929v-639h874v-41h-874v-700h938v-41h-979zM371 1573v166h41v-166h-41zM690 1573v166h41v-166h-41z" />
<glyph unicode="&#xcc;" horiz-adv-x="262" d="M-80 1862h60l256 -295h-31zM111 0v1462h41v-1462h-41z" />
<glyph unicode="&#xcd;" horiz-adv-x="262" d="M18 1567l271 295h59l-299 -295h-31zM111 0v1462h41v-1462h-41z" />
<glyph unicode="&#xce;" horiz-adv-x="262" d="M-117 1577l232 285h30l234 -285h-41l-211 252l-203 -252h-41zM111 0v1462h41v-1462h-41z" />
<glyph unicode="&#xcf;" horiz-adv-x="262" d="M-49 1573v166h41v-166h-41zM111 0v1462h41v-1462h-41zM270 1573v166h41v-166h-41z" />
<glyph unicode="&#xd0;" horiz-adv-x="1327" d="M-20 741v41h131v680h512q161 0 301.5 -67t230.5 -231.5t90 -432.5q0 -368 -207 -559q-188 -172 -479 -172h-448v741h-131zM152 41h417q277 0 449 171q186 183 186 519q0 258 -83 412t-215.5 216t-293.5 62h-460v-639h608v-41h-608v-700z" />
<glyph unicode="&#xd1;" horiz-adv-x="1327" d="M111 0v1462h61l999 -1411h5v1411h41v-1462h-62l-999 1411h-4v-1411h-41zM393 1598q0 58 43 110t86.5 52t74 -15.5t79.5 -48.5t70 -44t56.5 -11t62.5 33.5t27 79.5h41q0 -63 -37.5 -108.5t-103.5 -45.5q-32 0 -58 12.5t-71.5 44.5t-72 47t-55.5 15t-52 -18 q-49 -40 -49 -103h-41z" />
<glyph unicode="&#xd2;" horiz-adv-x="1477" d="M66 731q0 328 174 541q86 106 213 165.5t286.5 59.5t286 -59t213.5 -165q174 -212 174 -542q0 -329 -174 -541q-185 -225 -500 -225q-159 0 -286 60t-213 165q-174 214 -174 541zM106 731q6 -326 172 -521q174 -204 461 -204q291 0 463 204q166 198 170 521 q-4 324 -170 521q-172 204 -463 204q-193 0 -335.5 -92t-218.5 -257.5t-79 -375.5zM528 1862h60l256 -295h-31z" />
<glyph unicode="&#xd3;" horiz-adv-x="1477" d="M66 731q0 328 174 541q86 106 213 165.5t286.5 59.5t286 -59t213.5 -165q174 -212 174 -542q0 -329 -174 -541q-185 -225 -500 -225q-159 0 -286 60t-213 165q-174 214 -174 541zM106 731q6 -326 172 -521q174 -204 461 -204q291 0 463 204q166 198 170 521 q-4 324 -170 521q-172 204 -463 204q-193 0 -335.5 -92t-218.5 -257.5t-79 -375.5zM626 1567l271 295h59l-299 -295h-31z" />
<glyph unicode="&#xd4;" horiz-adv-x="1477" d="M66 731q0 328 174 541q86 106 213 165.5t286.5 59.5t286 -59t213.5 -165q174 -212 174 -542q0 -329 -174 -541q-185 -225 -500 -225q-159 0 -286 60t-213 165q-174 214 -174 541zM106 731q6 -326 172 -521q174 -204 461 -204q291 0 463 204q166 198 170 521 q-4 324 -170 521q-172 204 -463 204q-193 0 -335.5 -92t-218.5 -257.5t-79 -375.5zM491 1577l232 285h30l234 -285h-41l-211 252l-203 -252h-41z" />
<glyph unicode="&#xd5;" horiz-adv-x="1477" d="M66 731q0 328 174 541q86 106 213 165.5t286.5 59.5t286 -59t213.5 -165q174 -212 174 -542q0 -329 -174 -541q-185 -225 -500 -225q-159 0 -286 60t-213 165q-174 214 -174 541zM106 731q6 -326 172 -521q174 -204 461 -204q291 0 463 204q166 198 170 521 q-4 324 -170 521q-172 204 -463 204q-193 0 -335.5 -92t-218.5 -257.5t-79 -375.5zM469 1598q0 58 43 110t86.5 52t74 -15.5t79.5 -48.5t70 -44t56.5 -11t62.5 33.5t27 79.5h41q0 -63 -37.5 -108.5t-103.5 -45.5q-32 0 -58 12.5t-71.5 44.5t-72 47t-55.5 15t-52 -18 q-49 -40 -49 -103h-41z" />
<glyph unicode="&#xd6;" horiz-adv-x="1477" d="M66 731q0 328 174 541q86 106 213 165.5t286.5 59.5t286 -59t213.5 -165q174 -212 174 -542q0 -329 -174 -541q-185 -225 -500 -225q-159 0 -286 60t-213 165q-174 214 -174 541zM106 731q6 -326 172 -521q174 -204 461 -204q291 0 463 204q166 198 170 521 q-4 324 -170 521q-172 204 -463 204q-193 0 -335.5 -92t-218.5 -257.5t-79 -375.5zM559 1573v166h41v-166h-41zM878 1573v166h41v-166h-41z" />
<glyph unicode="&#xd7;" horiz-adv-x="1229" d="M197 129l389 389l-389 389l28 27l387 -391l392 391l28 -27l-391 -389l391 -389l-28 -29l-392 392l-387 -392z" />
<glyph unicode="&#xd8;" horiz-adv-x="1477" d="M66 731q0 328 174 541q86 106 213 165.5t286 59.5q296 0 480 -203l120 133l31 -24l-125 -139q168 -206 168 -533q0 -329 -174 -541q-185 -225 -492 -225t-489 207l-145 -162l-31 25l149 166q-165 206 -165 530zM106 731q5 -307 154 -498l930 1031q-173 192 -451 192 q-193 0 -335.5 -92t-218.5 -257.5t-79 -375.5zM287 203q167 -197 452 -197q291 0 463 204q166 198 170 521q-2 310 -155 500z" />
<glyph unicode="&#xd9;" horiz-adv-x="1294" d="M111 545v917h41v-917q0 -539 495 -539q330 0 441 244q55 120 55 295v917h41v-917q0 -433 -308 -544q-99 -36 -250.5 -36t-271.5 65q-243 132 -243 515zM436 1862h60l256 -295h-31z" />
<glyph unicode="&#xda;" horiz-adv-x="1294" d="M111 545v917h41v-917q0 -539 495 -539q330 0 441 244q55 120 55 295v917h41v-917q0 -433 -308 -544q-99 -36 -250.5 -36t-271.5 65q-243 132 -243 515zM534 1567l271 295h59l-299 -295h-31z" />
<glyph unicode="&#xdb;" horiz-adv-x="1294" d="M111 545v917h41v-917q0 -539 495 -539q330 0 441 244q55 120 55 295v917h41v-917q0 -433 -308 -544q-99 -36 -250.5 -36t-271.5 65q-243 132 -243 515zM399 1577l232 285h30l234 -285h-41l-211 252l-203 -252h-41z" />
<glyph unicode="&#xdc;" horiz-adv-x="1294" d="M111 545v917h41v-917q0 -539 495 -539q330 0 441 244q55 120 55 295v917h41v-917q0 -433 -308 -544q-99 -36 -250.5 -36t-271.5 65q-243 132 -243 515zM467 1573v166h41v-166h-41zM786 1573v166h41v-166h-41z" />
<glyph unicode="&#xdd;" horiz-adv-x="1102" d="M-61 1462h51l561 -803l563 803h49l-592 -846v-616h-41v616zM438 1612l271 295h59l-299 -295h-31z" />
<glyph unicode="&#xde;" horiz-adv-x="1176" d="M111 0v1462h41v-254h550q285 0 392 -179q53 -89 53 -217.5t-59 -218.5q-120 -181 -406 -181h-530v-412h-41zM152 453h550q245 0 352 165q52 81 52 191q0 173 -101.5 265.5t-302.5 92.5h-550v-714z" />
<glyph unicode="&#xdf;" horiz-adv-x="985" d="M113 0v1139q0 180 105 264t258 84t263.5 -92t110.5 -246q0 -179 -117 -270q-58 -45 -143 -60v-4q172 -15 254 -115.5t82 -269.5q0 -430 -469 -430h-43v41q27 0 53 -2q418 0 418 391q0 210 -119.5 286.5t-351.5 76.5v41q176 0 285.5 72.5t109.5 242.5q0 88 -45 157 q-91 140 -291 140q-120 0 -219.5 -64.5t-99.5 -248.5v-1133h-41z" />
<glyph unicode="&#xe0;" horiz-adv-x="985" d="M45 260q0 176 98.5 240t231.5 72.5t218.5 15t132.5 20.5q93 28 93 137q0 79 -20.5 141.5t-89 106t-215 43.5t-239 -80t-103.5 -229h-41q8 157 110.5 253.5t273.5 96.5t266 -70t99 -231v-670q0 -69 82 -69q19 0 51 4v-41q-14 -2 -59 -2q-115 0 -115 104v138h-4 q-30 -106 -146 -185q-117 -80 -274.5 -80t-253.5 74.5t-96 210.5zM86 260q0 -102 74 -173t219.5 -71t242 57t147 151.5t50.5 199.5v194h-4q-43 -62 -222 -72q-77 -5 -206.5 -13.5t-215 -64t-85.5 -208.5zM282 1452h60l256 -295h-31z" />
<glyph unicode="&#xe1;" horiz-adv-x="985" d="M45 260q0 176 98.5 240t231.5 72.5t218.5 15t132.5 20.5q93 28 93 137q0 79 -20.5 141.5t-89 106t-215 43.5t-239 -80t-103.5 -229h-41q8 157 110.5 253.5t273.5 96.5t266 -70t99 -231v-670q0 -69 82 -69q19 0 51 4v-41q-14 -2 -59 -2q-115 0 -115 104v138h-4 q-30 -106 -146 -185q-117 -80 -274.5 -80t-253.5 74.5t-96 210.5zM86 260q0 -102 74 -173t219.5 -71t242 57t147 151.5t50.5 199.5v194h-4q-43 -62 -222 -72q-77 -5 -206.5 -13.5t-215 -64t-85.5 -208.5zM380 1157l271 295h59l-299 -295h-31z" />
<glyph unicode="&#xe2;" horiz-adv-x="985" d="M45 260q0 176 98.5 240t231.5 72.5t218.5 15t132.5 20.5q93 28 93 137q0 79 -20.5 141.5t-89 106t-215 43.5t-239 -80t-103.5 -229h-41q8 157 110.5 253.5t273.5 96.5t266 -70t99 -231v-670q0 -69 82 -69q19 0 51 4v-41q-14 -2 -59 -2q-115 0 -115 104v138h-4 q-30 -106 -146 -185q-117 -80 -274.5 -80t-253.5 74.5t-96 210.5zM86 260q0 -102 74 -173t219.5 -71t242 57t147 151.5t50.5 199.5v194h-4q-43 -62 -222 -72q-77 -5 -206.5 -13.5t-215 -64t-85.5 -208.5zM245 1167l232 285h30l234 -285h-41l-211 252l-203 -252h-41z" />
<glyph unicode="&#xe3;" horiz-adv-x="985" d="M45 260q0 176 98.5 240t231.5 72.5t218.5 15t132.5 20.5q93 28 93 137q0 79 -20.5 141.5t-89 106t-215 43.5t-239 -80t-103.5 -229h-41q8 157 110.5 253.5t273.5 96.5t266 -70t99 -231v-670q0 -69 82 -69q19 0 51 4v-41q-14 -2 -59 -2q-115 0 -115 104v138h-4 q-30 -106 -146 -185q-117 -80 -274.5 -80t-253.5 74.5t-96 210.5zM86 260q0 -102 74 -173t219.5 -71t242 57t147 151.5t50.5 199.5v194h-4q-43 -62 -222 -72q-77 -5 -206.5 -13.5t-215 -64t-85.5 -208.5zM223 1188q0 58 43 110t86.5 52t74 -15.5t79.5 -48.5t70 -44t56.5 -11 t62.5 33.5t27 79.5h41q0 -63 -37.5 -108.5t-103.5 -45.5q-32 0 -58 12.5t-71.5 44.5t-72 47t-55.5 15t-52 -18q-49 -40 -49 -103h-41z" />
<glyph unicode="&#xe4;" horiz-adv-x="985" d="M45 260q0 176 98.5 240t231.5 72.5t218.5 15t132.5 20.5q93 28 93 137q0 79 -20.5 141.5t-89 106t-215 43.5t-239 -80t-103.5 -229h-41q8 157 110.5 253.5t273.5 96.5t266 -70t99 -231v-670q0 -69 82 -69q19 0 51 4v-41q-14 -2 -59 -2q-115 0 -115 104v138h-4 q-30 -106 -146 -185q-117 -80 -274.5 -80t-253.5 74.5t-96 210.5zM86 260q0 -102 74 -173t219.5 -71t242 57t147 151.5t50.5 199.5v194h-4q-43 -62 -222 -72q-77 -5 -206.5 -13.5t-215 -64t-85.5 -208.5zM313 1163v166h41v-166h-41zM632 1163v166h41v-166h-41z" />
<glyph unicode="&#xe5;" horiz-adv-x="985" d="M45 260q0 176 98.5 240t231.5 72.5t218.5 15t132.5 20.5q93 28 93 137q0 79 -20.5 141.5t-89 106t-215 43.5t-239 -80t-103.5 -229h-41q8 157 110.5 253.5t273.5 96.5t266 -70t99 -231v-670q0 -69 82 -69q19 0 51 4v-41q-14 -2 -59 -2q-115 0 -115 104v138h-4 q-30 -106 -146 -185q-117 -80 -274.5 -80t-253.5 74.5t-96 210.5zM86 260q0 -102 74 -173t219.5 -71t242 57t147 151.5t50.5 199.5v194h-4q-43 -62 -222 -72q-77 -5 -206.5 -13.5t-215 -64t-85.5 -208.5zM313 1380q0 73 54 127t113.5 54t101 -25t66.5 -66.5t25 -89.5 t-24.5 -89.5t-66 -66t-101 -24.5t-114 53.5t-54.5 126.5zM354 1371q0 -46 41 -88t98 -42t98 42t41 88t-19 79q-41 70 -120 70t-120 -70q-19 -33 -19 -79z" />
<glyph unicode="&#xe6;" horiz-adv-x="1821" d="M66 260q0 176 98.5 240t286 76t248.5 20q141 17 141 146t-59.5 211.5t-236 82.5t-269 -80t-103.5 -229h-41q8 157 110.5 253.5t290.5 96.5q340 0 349 -307h4q59 191 227 268q84 39 195 39t195.5 -42t139.5 -116q113 -150 113 -401h-874q8 -227 108 -364.5t311 -137.5 q221 0 336 159q57 78 72 190h41q-12 -117 -71 -204t-156.5 -135.5t-244 -49.5t-257.5 87.5t-154 253.5h-4q-29 -157 -154 -249.5t-287.5 -92.5t-258.5 74.5t-96 210.5zM106 260q0 -102 74 -173t220 -71t242.5 57.5t147 151.5t50.5 199v194h-4q-47 -62 -222 -72 q-78 -5 -207.5 -13.5t-215 -64t-85.5 -208.5zM881 559h833q0 133 -45.5 242t-138 172t-222 63t-221.5 -58q-183 -115 -206 -419z" />
<glyph unicode="&#xe7;" d="M63 504q0 157 54.5 288t166 208t271.5 77q100 0 186.5 -40.5t142 -118.5t68.5 -185h-41q-32 198 -192 269q-75 34 -164 34q-159 0 -259.5 -77.5t-146 -199t-45.5 -237.5t28.5 -205t82.5 -156q117 -145 315 -145q104 0 189.5 41.5t138.5 120t62 180.5h41 q-16 -171 -129.5 -273.5t-288.5 -107.5l-68 -92q5 1 26 7t65 6t87 -29.5t43 -93.5q0 -150 -200 -150q-63 0 -168 35l18 39q97 -33 156.5 -33t106 26t46.5 74t-36 69.5t-88 21.5t-99 -27l-31 20l101 130q-203 8 -322 161q-117 150 -117 363z" />
<glyph unicode="&#xe8;" d="M51 526q0 166 64.5 293t170.5 192.5t224.5 65.5t205 -42.5t144.5 -118.5q113 -150 113 -398h-881q3 -228 104 -365t312 -137q165 0 274 90q116 93 138 259h41q-15 -118 -75 -206.5t-157 -136t-235.5 -47.5t-241.5 71q-201 137 -201 480zM92 559h840q0 130 -48.5 239.5 t-142 173.5t-216.5 64t-217.5 -58t-151.5 -167t-64 -252zM301 1452h60l256 -295h-31z" />
<glyph unicode="&#xe9;" d="M51 526q0 166 64.5 293t170.5 192.5t224.5 65.5t205 -42.5t144.5 -118.5q113 -150 113 -398h-881q3 -228 104 -365t312 -137q165 0 274 90q116 93 138 259h41q-15 -118 -75 -206.5t-157 -136t-235.5 -47.5t-241.5 71q-201 137 -201 480zM92 559h840q0 130 -48.5 239.5 t-142 173.5t-216.5 64t-217.5 -58t-151.5 -167t-64 -252zM399 1157l271 295h59l-299 -295h-31z" />
<glyph unicode="&#xea;" d="M51 526q0 166 64.5 293t170.5 192.5t224.5 65.5t205 -42.5t144.5 -118.5q113 -150 113 -398h-881q3 -228 104 -365t312 -137q165 0 274 90q116 93 138 259h41q-15 -118 -75 -206.5t-157 -136t-235.5 -47.5t-241.5 71q-201 137 -201 480zM92 559h840q0 130 -48.5 239.5 t-142 173.5t-216.5 64t-217.5 -58t-151.5 -167t-64 -252zM264 1167l232 285h30l234 -285h-41l-211 252l-203 -252h-41z" />
<glyph unicode="&#xeb;" d="M51 526q0 166 64.5 293t170.5 192.5t224.5 65.5t205 -42.5t144.5 -118.5q113 -150 113 -398h-881q3 -228 104 -365t312 -137q165 0 274 90q116 93 138 259h41q-15 -118 -75 -206.5t-157 -136t-235.5 -47.5t-241.5 71q-201 137 -201 480zM92 559h840q0 130 -48.5 239.5 t-142 173.5t-216.5 64t-217.5 -58t-151.5 -167t-64 -252zM332 1163v166h41v-166h-41zM651 1163v166h41v-166h-41z" />
<glyph unicode="&#xec;" horiz-adv-x="266" d="M-78 1452h60l256 -295h-31zM113 0v1053h41v-1053h-41z" />
<glyph unicode="&#xed;" horiz-adv-x="266" d="M20 1157l271 295h59l-299 -295h-31zM113 0v1053h41v-1053h-41z" />
<glyph unicode="&#xee;" horiz-adv-x="266" d="M-115 1167l232 285h30l234 -285h-41l-211 252l-203 -252h-41zM113 0v1053h41v-1053h-41z" />
<glyph unicode="&#xef;" horiz-adv-x="266" d="M-47 1163v166h41v-166h-41zM113 0v1053h41v-1053h-41zM272 1163v166h41v-166h-41z" />
<glyph unicode="&#xf0;" horiz-adv-x="1063" d="M57 488q0 123 32 220.5t92 171.5q129 158 351 158q138 0 242 -64q53 -33 90 -83h8q-54 111 -150 224.5t-179 182.5l-250 -139l-31 31l248 137q-89 71 -191 123l33 29q109 -57 197 -131l252 139l30 -33l-245 -137q288 -264 376 -527q44 -133 44 -278.5t-55.5 -267.5 t-164 -194.5t-255.5 -72.5t-255 72.5t-163.5 194t-55.5 244.5zM98 525q0 -111 28.5 -200t84.5 -159q120 -148 321 -148q134 0 233 68t149.5 180t50.5 241t-50.5 241.5t-149.5 180.5t-234 68t-233.5 -68t-149 -180.5t-50.5 -223.5z" />
<glyph unicode="&#xf1;" d="M113 0v1053h41v-260h4q31 125 127 203q102 81 231.5 81t215 -44.5t132.5 -130t47 -204.5v-698h-41v692q0 116 -44 194q-86 150 -289 150q-120 0 -207.5 -59.5t-131.5 -159.5t-44 -221v-596h-41zM242 1188q0 58 43 110t86.5 52t74 -15.5t79.5 -48.5t70 -44t56.5 -11 t62.5 33.5t27 79.5h41q0 -63 -37.5 -108.5t-103.5 -45.5q-32 0 -58 12.5t-71.5 44.5t-72 47t-55.5 15t-52 -18q-49 -40 -49 -103h-41z" />
<glyph unicode="&#xf2;" horiz-adv-x="1063" d="M57 546.5q0 126.5 55.5 252.5t164 202t239 76t219 -44.5t149.5 -121.5q122 -156 122 -385q0 -147 -55.5 -273.5t-163.5 -202t-237 -75.5t-219 44t-151.5 122.5t-92 178.5t-30.5 226.5zM98 525q0 -133 50 -251t149 -188t234 -70t234 70.5t149.5 188t50.5 250.5t-51 251 t-149.5 189t-233.5 71t-233.5 -71t-149 -189t-50.5 -251zM321 1452h60l256 -295h-31z" />
<glyph unicode="&#xf3;" horiz-adv-x="1063" d="M57 546.5q0 126.5 55.5 252.5t164 202t239 76t219 -44.5t149.5 -121.5q122 -156 122 -385q0 -147 -55.5 -273.5t-163.5 -202t-237 -75.5t-219 44t-151.5 122.5t-92 178.5t-30.5 226.5zM98 525q0 -133 50 -251t149 -188t234 -70t234 70.5t149.5 188t50.5 250.5t-51 251 t-149.5 189t-233.5 71t-233.5 -71t-149 -189t-50.5 -251zM419 1157l271 295h59l-299 -295h-31z" />
<glyph unicode="&#xf4;" horiz-adv-x="1063" d="M57 546.5q0 126.5 55.5 252.5t164 202t239 76t219 -44.5t149.5 -121.5q122 -156 122 -385q0 -147 -55.5 -273.5t-163.5 -202t-237 -75.5t-219 44t-151.5 122.5t-92 178.5t-30.5 226.5zM98 525q0 -133 50 -251t149 -188t234 -70t234 70.5t149.5 188t50.5 250.5t-51 251 t-149.5 189t-233.5 71t-233.5 -71t-149 -189t-50.5 -251zM284 1167l232 285h30l234 -285h-41l-211 252l-203 -252h-41z" />
<glyph unicode="&#xf5;" horiz-adv-x="1063" d="M57 546.5q0 126.5 55.5 252.5t164 202t239 76t219 -44.5t149.5 -121.5q122 -156 122 -385q0 -147 -55.5 -273.5t-163.5 -202t-237 -75.5t-219 44t-151.5 122.5t-92 178.5t-30.5 226.5zM98 525q0 -133 50 -251t149 -188t234 -70t234 70.5t149.5 188t50.5 250.5t-51 251 t-149.5 189t-233.5 71t-233.5 -71t-149 -189t-50.5 -251zM262 1188q0 58 43 110t86.5 52t74 -15.5t79.5 -48.5t70 -44t56.5 -11t62.5 33.5t27 79.5h41q0 -63 -37.5 -108.5t-103.5 -45.5q-32 0 -58 12.5t-71.5 44.5t-72 47t-55.5 15t-52 -18q-49 -40 -49 -103h-41z" />
<glyph unicode="&#xf6;" horiz-adv-x="1063" d="M57 546.5q0 126.5 55.5 252.5t164 202t239 76t219 -44.5t149.5 -121.5q122 -156 122 -385q0 -147 -55.5 -273.5t-163.5 -202t-237 -75.5t-219 44t-151.5 122.5t-92 178.5t-30.5 226.5zM98 525q0 -133 50 -251t149 -188t234 -70t234 70.5t149.5 188t50.5 250.5t-51 251 t-149.5 189t-233.5 71t-233.5 -71t-149 -189t-50.5 -251zM352 1163v166h41v-166h-41zM671 1163v166h41v-166h-41z" />
<glyph unicode="&#xf7;" horiz-adv-x="1229" d="M98 498v41h1032v-41h-1032zM530 84.5q0 37.5 25 60.5t60 23t59 -24t24 -60q0 -84 -84 -84q-42 0 -63 23.5t-21 61zM530 952.5q0 37.5 25 60.5t60 23t59 -24t24 -60q0 -84 -84 -84q-42 0 -63 23.5t-21 61z" />
<glyph unicode="&#xf8;" horiz-adv-x="1063" d="M37 45l123 127q-103 145 -103 354q0 147 55.5 273t164 202t255.5 76q217 0 342 -157l93 96l28 -29l-96 -100q107 -147 107 -361q0 -147 -55.5 -273.5t-163.5 -202t-257 -75.5q-216 0 -348 162l-116 -121zM98 548q0 -207 90 -345l656 686q-114 147 -312 147 q-136 0 -234.5 -71t-149 -189t-50.5 -228zM213 170q115 -154 319 -154q134 0 233 70.5t149.5 188t50.5 251.5q0 191 -97 330z" />
<glyph unicode="&#xf9;" d="M113 354v699h41v-693q0 -227 164 -307q75 -37 168 -37t164.5 34.5t121.5 97.5q98 124 98 309v596h41v-1053h-41v260h-4q-30 -126 -129.5 -205.5t-258.5 -79.5t-262 100.5t-103 278.5zM301 1452h60l256 -295h-31z" />
<glyph unicode="&#xfa;" d="M113 354v699h41v-693q0 -227 164 -307q75 -37 168 -37t164.5 34.5t121.5 97.5q98 124 98 309v596h41v-1053h-41v260h-4q-30 -126 -129.5 -205.5t-258.5 -79.5t-262 100.5t-103 278.5zM399 1157l271 295h59l-299 -295h-31z" />
<glyph unicode="&#xfb;" d="M113 354v699h41v-693q0 -227 164 -307q75 -37 168 -37t164.5 34.5t121.5 97.5q98 124 98 309v596h41v-1053h-41v260h-4q-30 -126 -129.5 -205.5t-258.5 -79.5t-262 100.5t-103 278.5zM264 1167l232 285h30l234 -285h-41l-211 252l-203 -252h-41z" />
<glyph unicode="&#xfc;" d="M113 354v699h41v-693q0 -227 164 -307q75 -37 168 -37t164.5 34.5t121.5 97.5q98 124 98 309v596h41v-1053h-41v260h-4q-30 -126 -129.5 -205.5t-258.5 -79.5t-262 100.5t-103 278.5zM332 1163v166h41v-166h-41zM651 1163v166h41v-166h-41z" />
<glyph unicode="&#xfd;" horiz-adv-x="834" d="M-25 1053h45l418 -998l377 998h43l-485 -1268q-38 -97 -100 -122t-179 -25v40q78 0 120 8q83 16 126 128l76 196zM305 1202l271 295h59l-299 -295h-31z" />
<glyph unicode="&#xfe;" horiz-adv-x="1100" d="M113 -362v1824h41v-704h4q43 147 149.5 233t272.5 86q217 0 335 -155q113 -149 113 -394q0 -239 -110 -390q-117 -163 -338 -163q-215 0 -338 153q-60 73 -84 167h-4v-657h-41zM154 519.5q0 -149.5 54.5 -266t151.5 -177t214 -60.5t197 44t126.5 116t68 163t21.5 210.5 t-43.5 235t-134.5 183.5t-229 68t-234 -68t-144 -183.5t-48 -265z" />
<glyph unicode="&#xff;" horiz-adv-x="834" d="M-25 1053h45l418 -998l377 998h43l-485 -1268q-38 -97 -100 -122t-179 -25v40q78 0 120 8q83 16 126 128l76 196zM238 1208v166h41v-166h-41zM557 1208v166h41v-166h-41z" />
<glyph unicode="&#x152;" horiz-adv-x="2087" d="M66 723q0 327 172 544q85 107 213.5 168.5t289.5 61.5q253 0 402 -168v133h889v-41h-848v-639h749v-41h-749v-700h848v-41h-889v133q-81 -84 -186.5 -126t-240.5 -42t-263 60t-213 165q-174 215 -174 533zM106 723q3 -207 79.5 -370.5t219 -255t336.5 -91.5 q104 0 212.5 46t189.5 141v1083q-95 99 -184.5 139.5t-225.5 40.5t-253 -52t-200 -150q-168 -199 -174 -531z" />
<glyph unicode="&#x153;" horiz-adv-x="1823" d="M66 506.5q0 127.5 24 224.5t76 176q110 170 332 170q167 0 275.5 -98t131.5 -262h4q30 165 131.5 261t282.5 99q144 0 241 -71q189 -140 189 -457v-31h-823q0 -502 393 -502q168 0 258 94t117 244h41q-38 -240 -213 -332q-88 -47 -203 -47q-173 0 -279.5 90t-132.5 257 h-4q-34 -164 -136.5 -255.5t-261 -91.5t-255.5 77t-142.5 202t-45.5 252.5zM106 526q0 -134 40.5 -250.5t128.5 -188t223 -71.5q207 0 299 142.5t92 367.5q0 310 -165 440q-87 70 -224 70t-225 -70q-169 -136 -169 -440zM930 559h782q-7 336 -213 439q-75 38 -174 38 q-200 0 -293.5 -128.5t-101.5 -348.5z" />
<glyph unicode="&#x178;" horiz-adv-x="1102" d="M-61 1462h51l561 -803l563 803h49l-592 -846v-616h-41v616zM371 1573v166h41v-166h-41zM690 1573v166h41v-166h-41z" />
<glyph unicode="&#x2c6;" horiz-adv-x="266" d="M-115 1212l232 285h30l234 -285h-41l-211 252l-203 -252h-41z" />
<glyph unicode="&#x2dc;" horiz-adv-x="266" d="M-137 1233q0 58 43 110t86.5 52t74 -15.5t79.5 -48.5t70 -44t56.5 -11t62.5 33.5t27 79.5h41q0 -63 -37.5 -108.5t-103.5 -45.5q-32 0 -58 12.5t-71.5 44.5t-72 47t-55.5 15t-52 -18q-49 -40 -49 -103h-41z" />
<glyph unicode="&#x2000;" horiz-adv-x="953" />
<glyph unicode="&#x2001;" horiz-adv-x="1907" />
<glyph unicode="&#x2002;" horiz-adv-x="953" />
<glyph unicode="&#x2003;" horiz-adv-x="1907" />
<glyph unicode="&#x2004;" horiz-adv-x="635" />
<glyph unicode="&#x2005;" horiz-adv-x="476" />
<glyph unicode="&#x2006;" horiz-adv-x="317" />
<glyph unicode="&#x2007;" horiz-adv-x="317" />
<glyph unicode="&#x2008;" horiz-adv-x="238" />
<glyph unicode="&#x2009;" horiz-adv-x="381" />
<glyph unicode="&#x200a;" horiz-adv-x="105" />
<glyph unicode="&#x2010;" horiz-adv-x="682" d="M162 528v41h358v-41h-358z" />
<glyph unicode="&#x2011;" horiz-adv-x="682" d="M162 528v41h358v-41h-358z" />
<glyph unicode="&#x2012;" horiz-adv-x="682" d="M162 528v41h358v-41h-358z" />
<glyph unicode="&#x2013;" d="M0 528v41h1024v-41h-1024z" />
<glyph unicode="&#x2014;" horiz-adv-x="2048" d="M0 528v41h2048v-41h-2048z" />
<glyph unicode="&#x2018;" horiz-adv-x="342" d="M150 1001v242q0 135 35 176q19 22 57 43v-41q-29 -19 -40.5 -58.5t-11.5 -119.5v-242h-40z" />
<glyph unicode="&#x2019;" horiz-adv-x="342" d="M100 1001v41q31 21 41.5 61t10.5 118v241h41v-241q0 -135 -35 -177q-19 -22 -58 -43z" />
<glyph unicode="&#x201a;" horiz-adv-x="342" d="M98 -203q52 49 52 203v201h40v-201q0 -98 -20.5 -153.5t-71.5 -90.5v41z" />
<glyph unicode="&#x201c;" horiz-adv-x="569" d="M170 1001v242q0 135 35 176q19 22 57 43v-41q-29 -19 -40 -59.5t-11 -118.5v-242h-41zM375 1001v242q0 135 35 176q19 22 57 43v-41q-29 -19 -40 -59.5t-11 -118.5v-242h-41z" />
<glyph unicode="&#x201d;" horiz-adv-x="569" d="M102 1001v41q31 21 41.5 61t10.5 118v241h41v-241q0 -135 -35 -177q-19 -22 -58 -43zM307 1001v41q29 19 40 58t11 121v241h41v-241q0 -135 -35 -177q-18 -22 -57 -43z" />
<glyph unicode="&#x201e;" horiz-adv-x="569" d="M102 -203q52 49 52 203v201h41v-201q0 -94 -21 -151.5t-72 -92.5v41zM307 -203q51 49 51 203v201h41v-201q0 -98 -20.5 -153.5t-71.5 -90.5v41z" />
<glyph unicode="&#x2022;" d="M147 731q0 99 48.5 183.5t133 133t171.5 48.5t154 -27.5t118 -78.5q107 -107 107 -259t-107 -259t-260 -107q-99 0 -183 49t-133 133.5t-49 183.5z" />
<glyph unicode="&#x2026;" horiz-adv-x="2048" d="M322 0v201h40v-201h-40zM1004 0v201h40v-201h-40zM1686 0v201h40v-201h-40z" />
<glyph unicode="&#x202f;" horiz-adv-x="381" />
<glyph unicode="&#x2039;" horiz-adv-x="530" d="M135 532v33l211 285v-72l-170 -229l170 -230v-71z" />
<glyph unicode="&#x203a;" horiz-adv-x="530" d="M184 248v71l170 230l-170 229v72l211 -285v-33z" />
<glyph unicode="&#x205f;" horiz-adv-x="476" />
<glyph unicode="&#x2122;" horiz-adv-x="2028" d="M168 1421v41h655v-41h-307v-803h-41v803h-307zM1016 618v844h69l332 -786l332 786h70v-844h-41v803h-4l-336 -803h-41l-336 803h-4v-803h-41z" />
<glyph unicode="&#xe000;" horiz-adv-x="1055" d="M0 0v1055h1055v-1055h-1055z" />
</font>
</defs>
</svg>
